<?xml version="1.0" standalone="no"?>
<!DOCTYPE svg PUBLIC "-//W3C//DTD SVG 20010904//EN"
 "http://www.w3.org/TR/2001/REC-SVG-20010904/DTD/svg10.dtd">
<svg version="1.0" xmlns="http://www.w3.org/2000/svg"
 width="2048.000000pt" height="2048.000000pt" viewBox="0 0 2048.000000 2048.000000"
 preserveAspectRatio="xMidYMid meet">

<g transform="translate(0.000000,2048.000000) scale(0.100000,-0.100000)"
fill="#000000" stroke="none">
<path d="M9880 20399 c-2896 -99 -5587 -1421 -7460 -3664 -1098 -1315 -1852
-2915 -2169 -4600 -212 -1125 -232 -2308 -60 -3435 157 -1032 463 -2007 924
-2945 146 -296 272 -527 409 -750 30 -49 68 -112 84 -140 150 -257 553 -813
823 -1135 257 -306 696 -766 963 -1007 1277 -1154 2747 -1940 4391 -2351 597
-149 1228 -245 1865 -283 252 -16 929 -16 1180 0 914 56 1772 220 2622 502
1203 399 2342 1036 3323 1860 421 353 865 794 1226 1219 867 1021 1551 2261
1942 3525 372 1199 514 2363 446 3645 -14 272 -52 635 -95 920 -262 1729 -952
3336 -2023 4715 -259 333 -502 607 -834 940 -428 429 -766 719 -1257 1076
-936 681 -2046 1218 -3172 1533 -823 230 -1577 346 -2458 376 -320 11 -324 11
-670 -1z m695 -349 c1093 -40 2088 -237 3100 -612 807 -300 1614 -733 2325
-1248 158 -115 174 -127 410 -316 532 -425 1108 -1007 1529 -1544 267 -340
429 -571 638 -905 818 -1315 1310 -2789 1443 -4329 83 -962 26 -1925 -171
-2876 -115 -558 -289 -1125 -512 -1675 -695 -1713 -1879 -3213 -3387 -4291
-1442 -1031 -3091 -1640 -4855 -1794 -1193 -104 -2412 12 -3560 340 -1093 312
-2147 829 -3084 1510 -627 457 -1233 1026 -1747 1640 -875 1046 -1526 2272
-1903 3585 -408 1422 -486 2958 -225 4430 349 1967 1294 3781 2713 5203 643
646 1376 1202 2161 1641 222 125 704 362 923 456 1218 518 2454 775 3822 793
61 1 232 -3 380 -8z"/>
<path d="M9760 19889 c-855 -46 -1670 -192 -2440 -437 -2211 -706 -4076 -2162
-5305 -4142 -710 -1144 -1188 -2490 -1354 -3815 -59 -465 -81 -813 -81 -1255
1 -2157 704 -4214 2024 -5920 66 -85 143 -182 171 -215 252 -296 247 -291 448
-506 302 -324 725 -707 1097 -995 1185 -917 2532 -1536 3990 -1833 1132 -231
2354 -254 3505 -66 974 160 1894 460 2780 910 1167 592 2150 1365 3005 2365
1220 1427 2006 3216 2229 5070 57 476 76 838 68 1345 -10 649 -63 1148 -187
1765 -373 1858 -1284 3553 -2635 4906 -529 529 -1049 944 -1715 1369 -495 316
-1176 651 -1750 862 -957 352 -1880 540 -2910 593 -221 11 -723 11 -940 -1z
m970 -209 c576 -31 1128 -108 1655 -231 1478 -346 2842 -1037 4005 -2030 409
-349 860 -813 1198 -1232 798 -989 1378 -2096 1727 -3293 181 -618 295 -1237
351 -1904 21 -253 30 -964 15 -1245 -66 -1247 -364 -2428 -897 -3556 -237
-503 -573 -1067 -893 -1504 -192 -262 -457 -589 -641 -790 -126 -138 -450
-464 -596 -600 -835 -776 -1872 -1429 -2934 -1848 -892 -351 -1811 -561 -2800
-639 -219 -17 -1147 -17 -1360 0 -1684 136 -3182 649 -4550 1557 -553 367
-1014 749 -1496 1237 -298 302 -424 443 -657 735 -1089 1365 -1769 2966 -1992
4683 -58 454 -79 847 -72 1360 7 520 40 909 113 1360 101 620 234 1131 462
1770 174 490 501 1163 800 1650 471 766 1017 1431 1672 2033 265 245 466 412
735 614 1516 1136 3328 1787 5225 1876 167 8 764 6 930 -3z"/>
<path d="M10187 18643 c-4 -158 -10 -489 -14 -735 l-6 -448 199 0 200 0 13
726 c7 399 11 727 9 729 -2 1 -91 6 -199 10 l-196 7 -6 -289z"/>
<path d="M11002 18553 c48 -208 104 -445 123 -528 19 -82 60 -258 91 -390 31
-132 58 -243 61 -247 2 -5 16 -8 29 -8 14 0 79 -10 145 -22 65 -12 121 -20
123 -17 2 2 75 117 161 254 360 570 659 1041 672 1061 13 21 12 22 -54 34
-182 32 -347 59 -348 57 -1 -1 -39 -69 -85 -152 -46 -82 -137 -247 -203 -365
-125 -223 -149 -270 -187 -357 -12 -29 -26 -53 -30 -53 -4 0 -10 42 -13 93 -4
50 -18 157 -33 237 -54 303 -85 479 -104 590 -11 63 -24 117 -28 121 -6 6
-371 69 -398 69 -6 0 26 -157 78 -377z"/>
<path d="M9125 18854 c-153 -18 -429 -55 -431 -57 -1 -1 36 -303 82 -672 46
-368 86 -694 89 -722 5 -38 11 -53 22 -53 22 0 347 42 351 45 3 2 -44 395 -62
523 -3 18 -1 32 4 30 4 -2 96 -118 203 -259 l195 -255 38 4 c93 10 396 51 399
54 2 2 -100 121 -227 266 -127 145 -229 265 -227 266 2 2 28 16 57 30 141 71
212 189 212 351 0 155 -38 255 -134 350 -89 89 -143 108 -316 111 -74 1 -189
-4 -255 -12z m213 -309 c54 -23 81 -53 97 -109 33 -111 11 -183 -71 -228 -50
-27 -180 -56 -207 -45 -10 4 -19 48 -31 159 -10 84 -20 170 -23 190 l-5 37 43
4 c102 9 161 6 197 -8z"/>
<path d="M13954 18622 c3 -9 24 -84 46 -167 23 -82 48 -173 56 -202 14 -49 17
-53 81 -87 37 -20 67 -35 68 -33 0 1 -1 89 -3 195 l-4 193 -91 45 c-51 25
-107 52 -125 59 -30 13 -33 13 -28 -3z"/>
<path d="M12703 18498 c-72 -209 -433 -1308 -433 -1320 1 -13 364 -137 374
-127 7 7 458 1380 455 1383 -2 2 -83 29 -179 61 -96 32 -180 60 -185 62 -6 2
-20 -25 -32 -59z"/>
<path d="M7105 18335 c-185 -40 -348 -149 -428 -285 -31 -53 -57 -155 -57
-224 0 -63 38 -226 55 -232 10 -4 300 107 313 121 2 2 -4 35 -14 73 -15 59
-16 76 -6 110 51 168 276 193 343 38 36 -84 25 -157 -70 -451 -166 -520 -248
-780 -246 -783 2 -2 148 57 485 198 63 26 210 87 325 135 116 48 211 88 212
89 3 2 -71 183 -102 253 l-14 31 -202 -84 c-111 -46 -204 -82 -206 -80 -2 2
33 105 76 229 98 275 119 377 102 486 -22 144 -115 282 -229 340 -93 48 -222
61 -337 36z"/>
<path d="M13506 18127 c-35 -73 -114 -235 -176 -362 -62 -126 -136 -279 -165
-340 -29 -60 -94 -193 -144 -295 l-90 -185 242 -119 c133 -65 314 -154 403
-196 l161 -78 71 145 71 145 -200 99 c-110 54 -204 99 -207 99 -4 0 -17 7 -30
15 l-22 16 55 109 c30 61 57 110 59 110 1 0 96 -45 210 -100 113 -55 209 -100
214 -100 4 0 38 61 75 136 l67 135 -216 106 c-118 58 -214 108 -212 112 27 67
105 221 112 221 5 0 105 -47 224 -105 118 -58 218 -105 223 -105 10 0 139 254
139 272 -1 11 -417 218 -721 360 l-80 37 -63 -132z"/>
<path d="M14757 17598 c-28 -38 -252 -352 -435 -608 -68 -96 -141 -197 -162
-225 -92 -125 -232 -326 -229 -329 42 -34 285 -199 294 -200 11 -1 111 132
279 371 53 75 70 89 61 51 -2 -13 -12 -108 -20 -213 -9 -104 -20 -228 -25
-275 -18 -156 -33 -130 168 -274 l177 -127 6 103 c4 57 7 169 8 249 0 80 4
193 7 251 l7 105 61 -19 c195 -62 389 37 494 252 36 73 37 79 37 185 0 101 -2
115 -29 170 -53 109 -165 205 -608 518 l-67 47 -24 -32z m226 -488 c75 -57
117 -119 117 -174 0 -48 -39 -125 -84 -164 -64 -56 -132 -52 -241 13 -108 65
-110 49 16 223 61 83 114 152 118 152 4 0 38 -23 74 -50z"/>
<path d="M5365 17355 c-173 -37 -359 -161 -446 -296 -92 -144 -92 -345 1 -489
48 -75 140 -155 201 -175 78 -26 199 -17 314 24 50 18 121 43 158 57 93 33
156 32 197 -2 66 -56 80 -142 34 -210 -32 -46 -44 -57 -106 -89 -67 -35 -168
-49 -263 -36 -42 6 -77 11 -79 11 -1 0 6 -71 15 -157 10 -87 18 -163 18 -170
1 -20 70 -26 170 -15 174 18 301 78 432 200 237 223 248 519 28 744 -147 151
-257 160 -555 48 -168 -63 -211 -65 -260 -16 -106 106 42 269 257 283 59 5 79
9 75 19 -3 7 -19 74 -37 148 l-33 136 -30 -1 c-17 0 -58 -6 -91 -14z"/>
<path d="M15466 16196 c-395 -389 -518 -515 -511 -526 5 -8 146 -154 314 -323
l305 -308 116 116 115 115 -180 180 -180 180 85 85 c46 47 89 85 95 85 6 0 85
-74 175 -166 l164 -165 107 107 c90 90 106 110 97 123 -7 9 -80 85 -163 169
-82 84 -151 156 -153 160 -1 4 37 47 86 95 l88 87 181 -181 181 -182 111 108
c61 60 110 112 109 116 -2 4 -143 149 -313 322 l-310 315 -519 -512z"/>
<path d="M4143 16352 c-122 -130 -241 -257 -265 -282 -23 -25 -60 -64 -82 -88
-39 -42 -40 -44 -22 -58 11 -7 51 -44 90 -82 120 -115 930 -876 947 -889 14
-11 43 16 215 200 109 116 246 261 304 320 86 89 102 111 94 125 -6 9 -58 61
-116 115 l-106 98 -84 -88 c-163 -172 -262 -273 -269 -273 -3 0 -45 37 -93 83
l-86 82 164 175 164 175 -100 95 c-56 52 -108 99 -116 104 -11 7 -27 -3 -61
-40 -25 -27 -99 -105 -163 -174 l-117 -125 -88 85 c-48 47 -89 88 -91 92 -2 4
74 90 169 190 l172 183 -113 107 c-62 60 -115 108 -119 108 -3 0 -106 -107
-228 -238z"/>
<path d="M10025 16514 c-1634 -58 -3171 -734 -4310 -1895 -995 -1015 -1602
-2267 -1780 -3674 -41 -323 -57 -839 -36 -1165 68 -1067 368 -2019 926 -2940
432 -713 1069 -1390 1773 -1883 1068 -748 2336 -1147 3642 -1147 1284 0 2522
382 3580 1104 792 540 1460 1263 1934 2089 405 708 671 1487 780 2292 46 334
51 421 51 865 0 447 -6 547 -51 875 -160 1157 -624 2225 -1363 3135 -138 170
-297 343 -487 530 -1073 1055 -2461 1683 -3969 1799 -144 11 -550 20 -690 15z
m525 -284 c432 -24 857 -91 1255 -197 1510 -401 2816 -1380 3631 -2723 536
-881 833 -1872 874 -2915 46 -1186 -256 -2359 -868 -3370 -86 -141 -203 -320
-252 -385 -14 -19 -53 -71 -85 -115 -276 -374 -680 -791 -1065 -1101 -837
-673 -1839 -1111 -2897 -1268 -336 -50 -490 -60 -903 -60 -413 0 -566 10 -905
60 -1715 254 -3250 1247 -4201 2719 -530 819 -840 1718 -945 2735 -17 168 -23
763 -10 956 46 652 211 1366 441 1904 217 509 427 880 730 1294 687 937 1643
1663 2746 2084 755 288 1645 427 2454 382z"/>
<path d="M9905 16034 c-22 -2 -96 -8 -165 -14 -365 -31 -749 -100 -1109 -200
-149 -42 -485 -158 -576 -199 -22 -10 -50 -22 -63 -25 -12 -4 -19 -12 -16 -18
4 -7 2 -8 -5 -4 -15 9 -53 -3 -46 -15 3 -5 0 -6 -8 -3 -41 15 -808 -391 -790
-419 3 -6 1 -7 -5 -3 -15 9 -174 -93 -165 -107 3 -6 1 -7 -5 -3 -16 10 -254
-162 -246 -176 4 -7 2 -8 -4 -4 -15 9 -84 -43 -75 -57 3 -5 2 -7 -4 -4 -14 9
-55 -22 -47 -35 4 -6 3 -9 -2 -5 -5 3 -18 -1 -28 -9 -16 -11 125 -13 945 -13
l964 -1 35 62 c41 71 145 214 202 276 23 25 36 48 32 55 -4 6 -3 8 1 4 10 -9
166 143 159 154 -2 4 1 11 7 15 8 4 9 3 5 -4 -14 -23 6 -11 82 49 42 34 76 66
74 71 -1 5 2 7 7 4 5 -4 41 14 80 39 99 64 288 156 416 203 215 78 426 113
685 113 329 0 570 -52 873 -190 38 -17 74 -28 79 -24 7 3 8 1 4 -5 -4 -7 14
-22 46 -38 69 -35 186 -113 271 -181 40 -32 72 -51 80 -47 6 4 8 3 4 -1 -9
-10 163 -186 175 -179 4 3 5 -2 2 -10 -7 -19 7 -21 26 -3 12 10 12 9 1 -5 -10
-14 -6 -25 32 -71 25 -30 79 -107 122 -171 l77 -116 961 0 c826 0 958 2 941
14 -10 8 -23 12 -28 9 -5 -4 -6 -1 -3 4 8 13 -26 45 -44 41 -8 -2 -13 2 -12 9
4 16 -54 56 -68 47 -7 -4 -9 -3 -5 4 8 14 -160 136 -175 126 -7 -4 -9 -3 -5 4
8 14 -50 55 -65 46 -7 -4 -9 -3 -6 3 7 12 -149 117 -162 109 -4 -3 -13 0 -21
6 -12 8 -12 9 3 4 9 -3 17 -4 17 -1 0 6 -218 133 -345 202 -200 108 -434 216
-452 209 -8 -3 -12 -2 -9 3 8 12 -50 35 -65 25 -7 -4 -10 -3 -6 3 13 20 -578
231 -611 218 -9 -3 -13 -3 -9 1 4 5 -14 14 -40 21 -336 91 -625 145 -1018 189
-132 15 -795 28 -900 18z m1140 -84 c-3 -5 -12 -10 -18 -10 -7 0 -6 4 3 10 19
12 23 12 15 0z m-1188 -206 c-3 -3 -12 -4 -19 -1 -8 3 -5 6 6 6 11 1 17 -2 13
-5z m-527 -178 c0 -2 -7 -7 -16 -10 -8 -3 -12 -2 -9 4 6 10 25 14 25 6z
m-1563 -101 c0 -8 -4 -12 -9 -9 -5 3 -6 10 -3 15 9 13 12 11 12 -6z m4958 6
c3 -5 0 -13 -6 -17 -8 -5 -9 -3 -4 6 6 9 1 10 -16 5 -19 -5 -21 -4 -9 4 19 13
27 14 35 2z m320 -171 c-3 -5 -12 -10 -18 -10 -7 0 -6 4 3 10 19 12 23 12 15
0z m-5694 -67 c13 -15 12 -15 -8 -4 -24 12 -29 21 -14 21 5 0 15 -7 22 -17z
m1397 -57 c-7 -8 -15 -12 -17 -11 -5 6 10 25 20 25 5 0 4 -6 -3 -14z m22 -10
c0 -2 -8 -10 -17 -17 -16 -13 -17 -12 -4 4 13 16 21 21 21 13z m-1695 -86 c3
-6 -1 -7 -9 -4 -18 7 -21 14 -7 14 6 0 13 -4 16 -10z m1558 -55 c-3 -9 -8 -14
-10 -11 -3 3 -2 9 2 15 9 16 15 13 8 -4z m3248 -42 c13 -16 12 -17 -3 -4 -17
13 -22 21 -14 21 2 0 10 -8 17 -17z m-5016 -33 c-3 -5 -12 -10 -18 -10 -7 0
-6 4 3 10 19 12 23 12 15 0z m6770 -8 c-3 -3 -11 0 -18 7 -9 10 -8 11 6 5 10
-3 15 -9 12 -12z m-1655 -68 c0 -8 -19 -13 -24 -6 -3 5 1 9 9 9 8 0 15 -2 15
-3z"/>
<path d="M10003 15599 c-185 -22 -428 -95 -606 -185 -204 -102 -354 -212 -517
-380 -285 -294 -446 -615 -522 -1044 -8 -48 -13 -152 -12 -290 1 -193 4 -228
28 -345 85 -407 274 -752 559 -1021 308 -291 672 -460 1096 -509 213 -25 410
-14 636 35 556 122 1048 517 1293 1040 211 449 240 966 81 1427 -165 478 -519
878 -966 1095 -180 86 -419 156 -608 178 -105 11 -358 11 -462 -1z m557 -43
c450 -82 862 -327 1140 -676 744 -936 441 -2307 -630 -2841 -557 -279 -1231
-257 -1766 56 -637 373 -997 1077 -924 1806 37 362 179 703 416 995 292 362
720 602 1194 670 123 17 452 12 570 -10z"/>
<path d="M10063 15543 c-45 -3 -63 -8 -63 -18 0 -7 38 -34 85 -59 444 -236
745 -600 943 -1141 63 -172 139 -483 167 -677 3 -26 10 -50 15 -53 10 -6 226
38 318 66 37 11 111 36 165 56 113 41 109 30 72 183 -50 206 -149 479 -236
653 -164 324 -422 638 -690 839 -132 100 -137 102 -243 123 -154 31 -325 39
-533 28z m342 -33 c61 -6 148 -18 193 -27 77 -15 92 -22 189 -91 117 -84 302
-257 396 -371 252 -305 434 -669 538 -1079 38 -147 39 -157 22 -169 -28 -21
-280 -100 -396 -124 -117 -25 -127 -23 -127 29 0 32 -55 293 -84 405 -92 346
-241 662 -425 902 -69 91 -216 239 -312 316 -81 64 -289 197 -313 200 -6 1 5
5 24 9 53 11 173 11 295 0z"/>
<path d="M9760 15486 c-114 -31 -228 -75 -341 -132 -113 -56 -269 -155 -269
-170 0 -6 19 -21 43 -34 224 -126 500 -366 692 -605 179 -221 351 -552 434
-833 l28 -97 48 -12 c131 -33 509 -50 678 -30 80 10 77 1 47 181 -51 300 -147
602 -266 836 -194 381 -466 661 -809 833 -59 29 -197 89 -199 86 -1 0 -39 -11
-86 -23z m301 -108 c534 -275 897 -852 1029 -1637 12 -68 19 -126 16 -128 -3
-3 -63 -9 -133 -14 -135 -10 -398 2 -528 24 l-70 12 -23 75 c-68 224 -193 493
-311 670 -196 294 -458 556 -736 735 -50 32 -94 61 -98 66 -13 11 121 94 257
159 105 51 225 95 346 127 43 12 86 -3 251 -89z"/>
<path d="M10955 15390 c-3 -5 24 -38 62 -72 355 -330 594 -716 746 -1208 25
-80 53 -183 63 -229 10 -46 23 -85 30 -88 6 -2 58 19 114 47 l102 51 -7 47
c-72 510 -324 944 -719 1243 -81 61 -246 160 -324 195 -63 28 -59 27 -67 14z
m186 -110 c444 -262 752 -683 863 -1181 25 -112 34 -184 26 -192 -3 -3 -38
-21 -79 -42 -82 -41 -85 -40 -97 30 -4 22 -21 92 -39 155 -132 462 -350 853
-654 1172 -46 48 -81 88 -78 88 4 0 29 -14 58 -30z"/>
<path d="M9024 15090 c-165 -142 -321 -347 -432 -568 -46 -92 -53 -114 -43
-125 10 -8 15 -9 18 -1 2 6 34 58 71 115 121 185 276 364 450 518 40 35 72 67
72 70 0 8 -54 41 -67 41 -6 0 -36 -23 -69 -50z m-52 -127 c-77 -76 -154 -156
-171 -178 -17 -22 -31 -35 -31 -29 0 18 153 196 234 272 137 127 112 77 -32
-65z"/>
<path d="M9096 14963 c-287 -257 -525 -613 -644 -963 -48 -141 -58 -240 -42
-430 19 -231 84 -472 178 -661 66 -131 76 -127 79 31 3 150 16 250 49 389 113
465 435 888 937 1231 43 30 81 58 84 63 19 31 -460 437 -516 437 -9 0 -65 -44
-125 -97z m389 -130 c88 -77 205 -193 205 -203 0 -4 -37 -32 -82 -63 -201
-136 -462 -379 -587 -545 -227 -301 -353 -623 -382 -980 -5 -69 -12 -128 -14
-130 -12 -12 -101 225 -135 363 -41 166 -51 245 -51 430 -1 157 0 162 34 260
138 399 347 710 670 997 l78 69 90 -62 c49 -34 128 -95 174 -136z"/>
<path d="M9690 14518 c-538 -368 -856 -812 -945 -1323 -22 -123 -30 -351 -17
-458 11 -82 15 -92 59 -150 69 -91 255 -272 357 -349 93 -69 262 -168 287
-168 8 0 57 13 109 28 l95 28 6 204 c6 219 24 337 75 495 84 260 253 506 475
689 55 44 99 86 99 92 0 6 -16 61 -35 122 -67 210 -167 423 -277 592 -84 127
-181 250 -197 250 -9 0 -50 -23 -91 -52z m241 -188 c129 -191 250 -447 309
-655 l18 -65 -78 -65 c-226 -188 -391 -419 -479 -669 -63 -180 -91 -351 -93
-574 l-1 -151 -66 -20 c-117 -35 -112 -35 -179 3 -191 108 -360 247 -494 406
-114 134 -112 130 -112 355 0 154 4 212 22 307 93 494 398 923 907 1275 l90
62 33 -37 c18 -20 73 -98 123 -172z"/>
<path d="M11953 13770 c-205 -104 -442 -182 -693 -227 -132 -24 -169 -27 -415
-27 -219 -1 -293 3 -392 18 l-123 19 -73 -56 c-161 -123 -317 -309 -401 -475
-37 -73 -106 -266 -106 -295 0 -17 91 -52 319 -123 327 -102 549 -139 831
-138 158 0 218 5 315 23 145 27 327 86 453 147 86 42 96 49 133 107 170 260
279 647 279 988 0 107 4 106 -127 39z m97 -53 c0 -88 -20 -267 -41 -372 -37
-184 -118 -392 -216 -557 l-47 -78 -101 -49 c-452 -220 -965 -223 -1623 -10
-205 67 -232 78 -232 99 0 32 60 192 106 280 81 158 223 321 396 455 l47 37
102 -16 c514 -82 1087 8 1534 239 33 17 63 29 68 27 4 -2 7 -27 7 -55z"/>
<path d="M9726 12623 c-24 -114 -42 -374 -32 -456 l7 -56 84 -26 c251 -76 470
-109 735 -109 252 0 369 14 471 59 187 80 404 232 562 393 110 113 130 160 49
118 -50 -26 -216 -76 -337 -102 -150 -32 -458 -44 -637 -24 -259 28 -524 95
-796 201 -90 36 -99 36 -106 2z m169 -58 c136 -50 310 -102 419 -125 245 -52
270 -54 556 -54 298 0 350 6 566 70 49 15 100 29 114 32 23 5 24 4 10 -13 -37
-46 -223 -202 -310 -260 -52 -35 -146 -89 -209 -121 -145 -72 -219 -85 -496
-87 -269 -1 -440 22 -702 94 l-112 31 -7 54 c-6 50 7 264 23 380 7 54 -1 54
148 -1z"/>
<path d="M9590 12058 c-19 -5 -41 -15 -49 -23 -11 -11 -9 -16 16 -29 57 -29
258 -84 388 -106 99 -17 171 -22 300 -22 94 -1 181 3 194 7 37 11 18 30 -35
32 -200 10 -442 55 -664 124 -103 32 -100 31 -150 17z m116 -38 c63 -22 252
-71 347 -90 31 -6 57 -14 57 -17 0 -16 -282 36 -405 74 -96 30 -101 33 -84 44
19 12 18 12 85 -11z"/>
<path d="M5964 14197 c-51 -54 -153 -170 -197 -223 -15 -17 -23 -35 -19 -39 4
-5 2 -5 -4 -2 -13 7 -110 -110 -100 -121 4 -3 11 0 16 8 6 8 10 11 10 5 0 -7
427 -10 1260 -10 693 0 1260 2 1260 5 0 86 38 321 66 413 5 16 -53 17 -1119
17 l-1124 0 -49 -53z"/>
<path d="M12247 14143 c13 -58 29 -155 36 -215 l12 -108 1273 -3 c699 -1 1272
0 1272 2 0 6 -109 142 -143 178 -17 18 -35 29 -40 26 -6 -3 -7 -1 -3 6 8 12 3
18 -119 149 l-68 72 -1122 0 -1122 0 24 -107z"/>
<path d="M5282 13320 c-7 -12 -10 -26 -6 -32 4 -6 3 -8 -4 -5 -15 10 -93 -118
-86 -140 4 -12 3 -14 -3 -5 -6 8 -31 -27 -81 -117 -40 -71 -72 -132 -72 -135
0 -3 750 -6 1666 -6 l1665 0 -7 23 c-3 12 -10 27 -14 32 -12 16 -78 223 -95
300 -9 39 -18 78 -21 88 -5 16 -84 17 -1467 17 -1461 0 -1462 0 -1475 -20z
m-18 -110 c-6 -6 -10 -3 -10 10 0 13 4 16 10 10 7 -7 7 -13 0 -20z m-103 -163
c-10 -9 -11 -8 -5 6 3 10 9 15 12 12 3 -3 0 -11 -7 -18z"/>
<path d="M12256 13323 c-2 -10 -10 -45 -16 -78 -13 -66 -66 -232 -99 -308 -12
-27 -21 -51 -21 -53 0 -2 749 -4 1665 -4 916 0 1665 3 1665 8 0 4 -17 37 -38
73 -21 35 -41 71 -44 79 -16 42 -106 179 -113 172 -5 -4 -5 -2 -1 5 9 16 -23
65 -37 56 -6 -3 -7 -1 -3 5 4 6 -1 23 -10 37 l-16 25 -1463 0 c-1385 0 -1464
-1 -1469 -17z"/>
<path d="M4790 12368 c-6 -18 -20 -53 -30 -78 -35 -83 -98 -264 -140 -400 -76
-248 -168 -646 -156 -676 3 -9 1 -12 -4 -9 -6 3 -10 2 -10 -4 0 -5 -11 -85
-25 -178 -146 -1004 -35 -2025 324 -2963 80 -207 170 -406 300 -658 29 -57 34
-62 49 -50 15 12 16 11 3 -4 -11 -15 -9 -24 14 -65 15 -27 41 -73 58 -103 39
-71 47 -81 60 -73 6 3 7 1 3 -5 -9 -15 0 -32 97 -177 117 -176 238 -335 250
-328 6 3 7 1 3 -6 -10 -15 13 -43 27 -34 6 3 7 1 3 -6 -9 -14 63 -103 77 -94
6 3 7 1 3 -6 -5 -7 5 -27 23 -49 118 -140 192 -225 244 -279 l60 -62 66 59
c159 141 321 196 503 171 148 -20 234 -68 393 -216 118 -110 154 -132 226
-141 103 -12 152 11 276 128 60 56 134 118 167 139 119 78 248 108 390 90 154
-19 247 -69 401 -216 110 -105 154 -132 226 -141 100 -12 155 12 262 114 132
125 175 158 259 196 93 44 209 60 319 46 148 -18 236 -67 400 -220 55 -52 120
-104 143 -115 54 -26 176 -27 223 -2 18 9 85 67 150 128 98 93 132 118 208
154 111 54 212 71 333 56 154 -19 224 -58 401 -220 99 -90 129 -113 172 -125
122 -37 187 -15 316 107 120 113 163 147 228 180 89 45 162 61 270 61 183 0
283 -47 467 -219 132 -124 161 -139 258 -139 46 0 89 6 112 16 20 9 78 56 130
105 114 108 159 143 223 175 113 57 222 75 346 59 148 -19 240 -70 388 -213
50 -49 95 -88 100 -88 29 0 451 476 443 501 -1 5 4 8 10 7 7 -2 12 5 12 14 -1
10 2 15 7 13 4 -3 16 7 26 22 10 15 20 30 24 33 3 3 22 27 42 53 31 41 35 52
26 70 -9 20 -9 20 4 5 12 -16 17 -13 47 30 165 231 415 644 405 670 -3 8 0 10
7 6 8 -5 9 -2 5 10 -4 10 -3 15 3 11 29 -18 281 570 400 929 34 103 43 135
103 371 176 691 221 1456 128 2175 -63 489 -189 983 -355 1400 l-34 85 -1930
3 -1929 2 -47 -50 c-26 -28 -44 -55 -41 -60 4 -6 3 -9 -2 -8 -14 5 -153 -124
-146 -135 3 -6 1 -7 -5 -3 -14 8 -74 -43 -65 -56 3 -7 1 -8 -6 -4 -6 4 -24 -4
-41 -17 -16 -14 -57 -42 -90 -62 -35 -21 -57 -41 -54 -47 4 -7 2 -8 -4 -4 -6
4 -42 -11 -79 -34 -37 -22 -71 -40 -75 -40 -5 0 -6 -5 -2 -12 4 -6 3 -8 -3 -5
-6 4 -50 -11 -99 -32 -135 -58 -262 -98 -428 -133 -145 -30 -160 -32 -391 -32
-225 -1 -249 1 -380 28 -260 53 -503 147 -699 270 -48 31 -92 53 -97 50 -5 -3
-8 -1 -7 4 4 14 -80 74 -93 67 -5 -4 -8 -1 -7 7 2 7 -3 12 -10 10 -8 -1 -11 2
-8 6 7 12 -28 44 -45 40 -8 -2 -13 2 -12 8 3 16 -85 97 -97 89 -6 -4 -9 -2 -8
3 2 5 -17 33 -41 61 -32 37 -47 48 -53 39 -7 -10 -8 -9 -7 2 1 8 -1 23 -5 33
-8 16 -110 17 -1941 17 l-1933 0 -12 -32z m4054 -198 c-6 -6 -10 -3 -10 10 0
13 4 16 10 10 7 -7 7 -13 0 -20z m2726 -86 c0 -2 -9 0 -20 6 -11 6 -20 13 -20
16 0 2 9 0 20 -6 11 -6 20 -13 20 -16z m-2437 -129 c-3 -9 -8 -14 -10 -11 -3
3 -2 9 2 15 9 16 15 13 8 -4z m-4665 -2770 c-3 -3 -9 2 -12 12 -6 14 -5 15 5
6 7 -7 10 -15 7 -18z m11235 -1150 c-3 -9 -8 -14 -10 -11 -3 3 -2 9 2 15 9 16
15 13 8 -4z m-10393 -1040 c0 -5 -5 -3 -10 5 -5 8 -10 20 -10 25 0 6 5 3 10
-5 5 -8 10 -19 10 -25z m9514 -443 c3 -5 -1 -9 -9 -9 -8 0 -12 4 -9 9 3 4 7 8
9 8 2 0 6 -4 9 -8z m-9088 -94 c0 -10 -1 -18 -2 -18 0 0 -8 8 -17 18 -15 16
-15 18 1 18 10 0 18 -8 18 -18z m9002 -3 c-3 -3 -9 2 -12 12 -6 14 -5 15 5 6
7 -7 10 -15 7 -18z m-8932 -77 c0 -10 -1 -18 -2 -18 0 0 -8 8 -17 18 -15 16
-15 18 1 18 10 0 18 -8 18 -18z"/>
<path d="M6402 5948 c-23 -13 -65 -43 -93 -67 -60 -51 -67 -38 93 -176 l107
-92 85 -6 c101 -7 207 -41 283 -92 30 -20 98 -78 152 -129 120 -115 161 -138
250 -138 89 -1 124 18 252 139 58 54 128 113 157 132 157 101 386 119 557 43
87 -37 137 -74 245 -178 119 -113 162 -137 250 -137 89 0 122 19 263 151 167
155 289 211 463 212 183 0 314 -61 484 -225 115 -112 159 -136 245 -137 89 0
134 24 252 135 169 160 270 212 439 224 199 14 338 -44 522 -221 54 -51 118
-104 143 -116 59 -31 157 -32 214 -2 42 22 51 29 181 152 44 43 110 93 146
114 203 113 473 97 655 -40 26 -21 85 -74 131 -118 105 -102 153 -128 241
-128 89 -1 126 19 253 139 120 114 180 155 280 191 62 22 91 27 193 28 l119 1
88 74 c48 40 88 76 88 80 0 3 -40 43 -89 88 -114 104 -160 125 -256 119 -91
-6 -115 -21 -255 -153 -163 -153 -278 -205 -457 -205 -98 0 -182 18 -259 55
-62 31 -101 60 -223 173 -118 110 -147 126 -237 130 -99 5 -141 -15 -256 -125
-111 -107 -156 -142 -224 -176 -89 -45 -166 -60 -289 -54 -181 7 -273 52 -445
217 -123 118 -175 144 -274 138 -39 -3 -86 -12 -104 -22 -18 -9 -83 -65 -146
-124 -169 -161 -280 -212 -461 -212 -182 0 -285 46 -454 204 -138 128 -187
156 -281 156 -92 0 -127 -20 -263 -147 -126 -119 -196 -163 -305 -194 -143
-41 -332 -17 -455 58 -33 20 -107 81 -165 136 -135 127 -184 151 -287 145 -91
-6 -115 -20 -255 -153 -174 -164 -287 -211 -485 -202 -177 8 -275 56 -445 218
-127 122 -146 132 -243 136 -70 3 -88 0 -125 -19z"/>
<path d="M7913 5231 c-23 -11 -88 -63 -145 -116 -57 -53 -131 -116 -166 -138
l-62 -42 82 -41 c69 -35 87 -40 108 -32 14 6 70 12 126 15 217 12 334 -35 519
-206 66 -62 137 -121 157 -131 45 -24 142 -27 192 -6 18 7 80 59 139 114 183
172 281 221 457 229 223 11 346 -41 540 -228 110 -106 151 -128 235 -129 80 0
117 21 235 134 174 166 276 216 460 224 87 3 131 0 180 -12 133 -34 193 -72
359 -224 115 -105 146 -122 227 -122 79 0 112 19 237 137 168 159 274 212 448
221 127 6 220 -11 312 -57 l75 -38 139 67 138 67 -55 28 c-70 35 -113 69 -227
177 -118 112 -138 123 -233 123 -94 0 -119 -13 -227 -116 -105 -99 -157 -140
-215 -172 -110 -60 -241 -84 -369 -67 -156 21 -255 76 -409 225 -121 117 -144
130 -240 130 -94 0 -119 -13 -230 -120 -174 -167 -267 -216 -452 -240 -60 -8
-196 11 -263 36 -81 30 -162 87 -275 194 -116 110 -160 135 -240 135 -80 0
-124 -25 -249 -142 -61 -57 -135 -118 -164 -136 -197 -119 -454 -115 -651 10
-28 18 -96 76 -151 129 -56 53 -116 104 -135 114 -53 27 -155 30 -207 6z"/>
<path d="M9287 4476 c-53 -19 -133 -87 -116 -97 12 -6 428 -69 460 -69 19 0
-120 128 -165 151 -50 27 -130 33 -179 15z"/>
<path d="M10748 4477 c-44 -17 -94 -56 -168 -131 l-54 -56 34 0 c44 0 373 28
420 36 19 3 48 8 63 11 l28 5 -53 49 c-29 27 -70 59 -92 70 -49 26 -130 33
-178 16z"/>
<path d="M16691 15574 c-134 -36 -272 -150 -306 -255 -29 -88 -17 -205 40
-374 60 -180 64 -219 33 -265 -110 -161 -310 -64 -339 165 -4 33 -3 100 2 149
5 49 8 90 7 91 -2 2 -73 -4 -158 -11 -85 -7 -161 -13 -169 -14 -11 0 -12 -27
-9 -142 5 -167 25 -239 102 -362 166 -266 429 -367 671 -257 129 59 228 157
265 265 34 94 23 180 -50 391 -65 186 -56 251 37 284 37 13 43 13 87 -8 84
-41 146 -167 146 -298 0 -62 1 -65 23 -60 12 3 80 18 151 33 l129 28 -7 67
c-12 133 -70 272 -163 391 -126 160 -314 230 -492 182z"/>
<path d="M3211 15211 c-6 -10 -53 -80 -106 -156 -52 -76 -95 -142 -95 -146 0
-4 143 -105 318 -225 174 -120 356 -245 404 -278 49 -34 138 -95 198 -136 61
-41 148 -101 193 -132 45 -32 84 -58 87 -58 3 0 118 166 256 368 l251 367
-135 92 c-75 51 -139 93 -142 93 -4 0 -69 -90 -144 -200 -76 -110 -140 -200
-142 -200 -3 0 -78 50 -167 112 -89 61 -202 139 -252 173 -49 34 -183 125
-297 203 -113 78 -209 142 -212 142 -3 0 -10 -8 -15 -19z"/>
<path d="M5735 4823 c-10 -16 -41 -59 -70 -98 -64 -87 -138 -190 -340 -470
-87 -121 -217 -300 -288 -399 -71 -98 -125 -182 -120 -186 4 -4 91 -67 193
-141 102 -73 248 -178 325 -234 77 -56 152 -109 166 -119 l27 -17 97 136 c54
75 96 137 94 139 -31 22 -271 195 -322 231 -42 29 -66 53 -63 61 6 15 287 410
530 743 54 74 100 139 102 145 4 9 -295 236 -310 236 -2 0 -12 -12 -21 -27z"/>
<path d="M14500 4630 c-25 -5 -83 -29 -130 -52 -110 -55 -571 -360 -568 -374
5 -20 793 -1193 802 -1194 5 0 76 44 157 99 l147 99 -154 230 c-85 127 -154
233 -154 236 0 3 98 -42 218 -101 119 -58 252 -121 295 -141 l77 -35 180 119
c99 65 180 121 180 124 0 3 -144 63 -320 134 -176 72 -320 132 -320 134 0 2
16 26 36 53 66 90 92 190 75 284 -29 155 -157 314 -296 367 -56 22 -164 30
-225 18z m81 -383 c43 -29 88 -93 99 -141 13 -60 -5 -104 -68 -166 -53 -51
-126 -100 -135 -90 -16 18 -208 312 -205 314 134 102 239 130 309 83z"/>
<path d="M6360 3565 c-294 -294 -536 -538 -537 -542 -1 -5 75 -45 169 -91
l172 -83 60 68 c34 37 75 83 91 101 l30 33 250 -121 c137 -66 251 -123 254
-126 2 -2 -6 -63 -18 -135 -13 -71 -22 -132 -20 -134 9 -8 343 -165 345 -162
2 2 26 190 53 418 28 227 69 564 91 747 22 184 40 338 40 344 0 9 -419 218
-437 218 -5 0 -249 -241 -543 -535z m646 144 c-13 -57 -73 -419 -92 -554 -3
-27 -8 -53 -10 -57 -3 -4 -68 25 -147 63 -194 95 -208 103 -205 110 2 4 78 87
169 185 91 99 194 212 229 252 34 40 64 71 66 69 3 -2 -2 -33 -10 -68z"/>
<path d="M13225 3935 c-198 -91 -377 -171 -398 -180 -23 -9 -37 -21 -34 -28 3
-7 97 -214 210 -462 112 -247 243 -539 292 -647 48 -109 92 -198 96 -198 4 0
110 46 236 103 125 57 303 137 395 178 92 40 168 79 168 85 0 6 -27 69 -60
140 -33 71 -61 133 -63 138 -3 8 -54 -14 -365 -154 -52 -23 -96 -39 -99 -36
-3 3 -27 53 -54 111 l-48 106 92 43 c51 23 147 67 214 97 67 30 123 58 123 62
0 4 -28 68 -61 142 -69 151 -51 141 -169 87 -194 -89 -312 -142 -319 -142 -12
0 -113 222 -104 230 4 4 107 51 228 104 121 54 221 99 222 100 5 4 -126 280
-133 282 -5 1 -171 -71 -369 -161z"/>
<path d="M12490 3635 c-63 -18 -276 -77 -472 -131 -196 -53 -362 -100 -369
-105 -10 -6 -3 -45 31 -168 35 -131 46 -160 59 -156 57 17 275 75 286 75 15 0
13 7 129 -415 132 -484 175 -638 180 -643 5 -5 347 86 365 97 8 5 7 22 -3 57
-8 27 -60 216 -116 419 -56 204 -115 419 -132 478 -17 60 -26 112 -22 116 5 4
72 25 149 46 77 20 143 39 147 41 3 2 -7 55 -24 117 -16 61 -35 132 -42 157
-9 32 -18 46 -32 47 -10 1 -71 -13 -134 -32z"/>
<path d="M7856 3638 c-3 -7 -21 -83 -41 -168 -20 -85 -86 -357 -147 -605 -140
-578 -149 -617 -144 -623 3 -2 84 -24 181 -47 120 -29 178 -39 181 -31 2 6 21
83 43 171 91 367 142 590 152 663 6 42 13 88 16 102 7 29 4 36 43 -127 11 -51
39 -136 62 -190 22 -54 60 -145 84 -203 24 -58 88 -213 143 -345 l99 -239 182
-44 c100 -24 183 -42 184 -40 2 1 76 303 165 670 89 367 166 682 171 698 8 27
6 32 -13 39 -43 16 -338 84 -343 78 -12 -12 -173 -688 -195 -822 -11 -66 -21
-124 -23 -130 -1 -5 -15 44 -31 110 -20 86 -55 187 -125 355 -54 129 -117 280
-140 335 -133 321 -130 314 -169 325 -52 15 -319 80 -326 80 -3 0 -7 -6 -9
-12z"/>
<path d="M11045 3364 c-286 -45 -464 -264 -426 -527 30 -218 135 -300 451
-356 188 -33 240 -72 240 -178 0 -44 -5 -58 -31 -88 -39 -44 -55 -53 -117 -65
-96 -18 -210 21 -326 112 -27 21 -53 35 -57 31 -4 -4 -37 -73 -73 -153 l-67
-144 23 -18 c46 -37 206 -110 269 -124 35 -7 104 -13 152 -14 350 -1 587 200
587 498 0 139 -34 242 -107 323 -60 67 -153 102 -360 138 -142 25 -194 47
-216 94 -21 43 -21 60 -2 97 49 95 200 112 355 39 36 -17 67 -30 70 -30 4 0
89 267 90 282 0 9 -81 43 -150 64 -54 16 -245 28 -305 19z"/>
<path d="M9487 3148 c-4 -90 -19 -414 -33 -721 -14 -307 -24 -560 -21 -563 2
-2 150 -11 328 -19 178 -8 376 -17 440 -21 l116 -6 6 158 c3 87 4 160 3 161
-2 2 -115 9 -251 16 l-249 12 3 100 c1 55 5 111 8 124 l6 24 171 -7 c94 -3
199 -9 232 -12 l61 -6 7 43 c3 24 6 94 7 154 l2 110 -119 7 c-66 4 -172 10
-237 14 l-117 6 6 122 c4 66 9 124 13 127 3 4 114 1 246 -5 132 -7 243 -10
246 -7 4 3 10 75 13 159 l7 152 -33 0 c-18 0 -213 9 -433 20 -220 11 -405 20
-411 20 -7 0 -13 -55 -17 -162z"/>
</g>
</svg>
