<?xml version="1.0" standalone="no"?>
<!DOCTYPE svg PUBLIC "-//W3C//DTD SVG 20010904//EN"
 "http://www.w3.org/TR/2001/REC-SVG-20010904/DTD/svg10.dtd">
<svg version="1.0" xmlns="http://www.w3.org/2000/svg"
 width="256.000000pt" height="256.000000pt" viewBox="0 0 256.000000 256.000000"
 preserveAspectRatio="xMidYMid meet">

<g transform="translate(0.000000,256.000000) scale(0.100000,-0.100000)"
fill="#000000" stroke="none">
<path d="M1095 2464 c-366 -66 -678 -294 -848 -622 -107 -205 -143 -374 -134
-611 11 -277 99 -508 274 -718 183 -219 450 -371 727 -413 661 -100 1257 332
1372 994 21 121 14 336 -15 457 -70 293 -220 522 -464 705 -72 54 -254 145
-347 173 -165 51 -398 65 -565 35z m440 -39 c365 -78 659 -307 820 -639 30
-61 67 -156 82 -211 25 -93 27 -114 27 -295 0 -180 -2 -203 -26 -292 -71 -261
-227 -492 -443 -653 -185 -139 -449 -225 -690 -225 -563 0 -1047 402 -1151
957 -19 101 -21 295 -5 394 83 509 495 909 1006 978 91 13 291 5 380 -14z"/>
<path d="M1086 2404 c-356 -70 -654 -301 -813 -630 -75 -155 -104 -273 -110
-449 -13 -347 105 -638 354 -876 97 -93 175 -146 296 -204 317 -152 678 -150
993 5 336 165 570 478 629 841 99 615 -307 1198 -918 1314 -99 19 -335 18
-431 -1z m506 -37 c560 -148 920 -707 822 -1278 -42 -242 -153 -450 -336 -625
-157 -150 -328 -240 -551 -291 -110 -25 -346 -22 -464 5 -346 79 -627 305
-779 627 -140 295 -137 682 8 970 162 320 471 551 827 615 25 5 120 7 211 6
139 -3 180 -7 262 -29z"/>
<path d="M1300 2225 c0 -78 2 -85 20 -85 18 0 20 7 20 85 0 78 -2 85 -20 85
-18 0 -20 -7 -20 -85z"/>
<path d="M1390 2303 c1 -10 18 -87 31 -135 15 -57 37 -49 90 35 40 61 44 73
30 79 -18 7 -34 -9 -65 -63 l-19 -34 -13 54 c-11 49 -26 70 -46 71 -5 0 -8 -3
-8 -7z"/>
<path d="M1129 2295 c-3 -2 -1 -40 4 -85 8 -68 13 -80 28 -80 15 0 19 8 19 33
l1 32 20 -27 c13 -18 30 -28 46 -28 l24 0 -22 31 c-16 23 -19 33 -10 42 15 15
14 60 -1 75 -11 11 -99 17 -109 7z m76 -50 c0 -11 -8 -21 -17 -23 -14 -3 -18
3 -18 23 0 20 4 26 18 23 9 -2 17 -12 17 -23z"/>
<path d="M1751 2263 c0 -5 4 -17 9 -28 8 -18 9 -17 9 8 1 15 -3 27 -9 27 -5 0
-10 -3 -9 -7z"/>
<path d="M1597 2253 c-2 -5 -14 -39 -27 -77 -19 -57 -20 -70 -9 -77 8 -5 17
-9 21 -9 9 0 59 151 52 161 -6 11 -31 12 -37 2z"/>
<path d="M902 2224 c-25 -17 -30 -64 -7 -64 8 0 15 6 15 14 0 22 29 41 42 28
9 -9 7 -29 -8 -81 l-21 -69 49 19 c27 10 51 19 53 19 3 0 5 7 5 16 0 12 -7 15
-25 12 -28 -6 -29 -3 -14 41 22 62 -35 103 -89 65z"/>
<path d="M1665 2153 c-19 -42 -34 -77 -33 -78 2 -2 22 -12 46 -24 39 -20 43
-20 49 -4 4 9 2 18 -4 20 -26 9 -42 29 -34 42 7 10 13 11 31 1 17 -9 25 -9 34
0 8 9 8 14 0 17 -28 10 -43 29 -35 42 7 10 13 11 30 2 21 -12 41 -8 41 8 0 4
-20 17 -45 29 l-45 22 -35 -77z"/>
<path d="M1795 2085 c-43 -60 -50 -85 -24 -85 6 0 20 10 30 23 l20 22 -3 -36
c-1 -21 4 -44 12 -55 14 -16 15 -14 20 22 4 31 10 40 28 42 32 5 57 45 43 71
-10 18 -62 61 -74 61 -3 0 -26 -29 -52 -65z m83 -13 c3 -16 -2 -22 -16 -22
-27 0 -33 10 -21 32 13 24 33 19 37 -10z"/>
<path d="M687 2102 c-21 -23 -22 -66 -2 -82 12 -10 24 -11 51 -2 28 8 36 8 40
-3 8 -20 -4 -35 -27 -35 -13 0 -19 -7 -19 -21 0 -18 4 -20 28 -14 39 10 62 34
62 66 0 39 -33 61 -72 47 -20 -7 -33 -7 -40 0 -13 13 -2 32 18 32 8 0 14 7 14
15 0 21 -33 19 -53 -3z"/>
<path d="M1927 1982 l-57 -58 34 -33 c36 -35 72 -35 40 0 -9 10 -14 25 -10 35
6 16 8 15 26 -1 11 -10 26 -15 36 -11 15 6 15 9 -5 30 -18 19 -19 25 -8 34 11
9 18 7 32 -8 14 -16 21 -17 32 -8 11 9 8 17 -19 45 -17 18 -35 33 -38 33 -3 0
-31 -26 -63 -58z"/>
<path d="M570 1995 l-34 -35 59 -60 59 -60 38 37 c29 28 35 40 26 50 -9 11
-15 10 -34 -8 -30 -28 -49 -17 -28 16 22 34 8 52 -20 26 -17 -16 -25 -18 -34
-9 -9 9 -7 17 8 33 17 18 18 24 7 33 -11 9 -21 4 -47 -23z"/>
<path d="M1144 2006 c-429 -98 -688 -542 -559 -957 76 -241 248 -415 495 -499
100 -34 289 -39 400 -11 225 57 395 192 496 396 61 124 78 196 78 335 0 214
-67 373 -219 525 -103 103 -168 145 -292 188 -76 26 -105 31 -213 33 -82 3
-146 -1 -186 -10z m340 -36 c214 -54 408 -223 490 -426 107 -263 53 -558 -139
-762 -89 -95 -173 -152 -283 -192 -338 -123 -720 23 -886 340 -62 118 -81 199
-81 340 0 103 4 138 23 200 41 129 88 206 187 306 102 102 200 161 327 194
101 26 260 26 362 0z"/>
<path d="M1134 1940 c-69 -18 -188 -72 -229 -104 -18 -14 -12 -15 80 -16 l100
0 37 40 c48 51 87 70 154 77 79 8 136 -12 199 -69 l53 -48 98 0 c92 1 98 2 79
16 -42 34 -183 95 -250 109 -96 20 -234 18 -321 -5z"/>
<path d="M785 1730 c-18 -20 -17 -20 128 -20 140 0 147 1 147 20 0 19 -7 20
-128 20 -116 0 -131 -2 -147 -20z"/>
<path d="M1550 1730 c0 -19 7 -20 147 -20 145 0 146 0 128 20 -16 18 -31 20
-147 20 -121 0 -128 -1 -128 -20z"/>
<path d="M712 1628 c-7 -7 -12 -16 -12 -20 0 -4 83 -8 185 -8 102 0 185 2 185
4 0 2 -3 11 -6 20 -5 14 -30 16 -173 16 -117 0 -171 -4 -179 -12z"/>
<path d="M1546 1624 c-3 -9 -6 -18 -6 -20 0 -2 83 -4 185 -4 102 0 185 4 185
8 0 27 -30 32 -191 32 -143 0 -168 -2 -173 -16z"/>
<path d="M638 1458 c-32 -104 -32 -273 1 -378 28 -90 60 -156 114 -232 40 -56
59 -69 72 -48 10 17 61 11 88 -10 32 -25 49 -25 72 0 24 26 76 26 100 0 23
-25 40 -25 72 0 32 25 71 25 103 0 31 -24 39 -24 70 0 32 25 71 25 103 0 32
-25 42 -25 74 0 33 26 75 26 98 0 23 -25 40 -25 72 0 30 24 71 26 99 5 10 -8
22 -15 26 -15 14 0 127 180 148 237 39 102 55 225 42 323 -6 47 -18 109 -27
138 l-16 52 -228 0 c-219 0 -229 -1 -247 -21 -38 -42 -95 -63 -169 -63 -74 0
-131 21 -169 63 -18 20 -28 21 -247 21 l-228 0 -23 -72z"/>
<path d="M847 763 c-14 -13 -6 -22 27 -33 19 -6 40 -18 46 -26 17 -19 37 -18
67 6 14 11 37 20 50 20 14 0 36 -9 50 -20 14 -11 32 -20 40 -20 8 0 26 9 40
20 14 11 36 20 48 20 12 0 34 -9 48 -20 14 -11 30 -20 37 -20 7 0 23 9 37 20
14 11 36 20 48 20 12 0 34 -9 48 -20 31 -25 45 -25 77 0 14 11 36 20 50 20 14
0 36 -9 50 -20 30 -24 53 -25 70 -5 7 8 26 19 43 23 36 9 45 27 20 36 -10 4
-28 -1 -45 -14 -35 -25 -78 -26 -111 0 -14 11 -29 20 -35 20 -5 0 -17 -9 -27
-20 -24 -27 -86 -27 -110 0 -10 11 -22 20 -27 20 -6 0 -21 -9 -35 -20 -32 -25
-81 -25 -113 0 -32 25 -43 25 -65 0 -11 -12 -31 -20 -50 -20 -18 0 -44 9 -58
20 -14 11 -28 20 -32 20 -4 0 -18 -9 -32 -20 -14 -11 -40 -20 -58 -20 -19 0
-39 8 -50 20 -18 20 -36 25 -48 13z"/>
<path d="M1005 660 c-18 -20 -17 -20 17 -20 20 0 46 -9 61 -20 14 -11 28 -20
32 -20 4 0 18 9 32 20 14 11 38 20 53 20 15 0 39 -9 53 -20 14 -11 28 -20 32
-20 4 0 18 9 32 20 14 11 39 20 55 20 17 0 41 -9 55 -20 32 -25 45 -25 69 1
15 17 27 20 61 16 50 -5 59 0 36 25 -21 23 -39 23 -70 -2 -33 -26 -75 -26 -98
0 -10 11 -25 20 -32 20 -8 0 -26 -9 -40 -20 -14 -11 -38 -20 -53 -20 -15 0
-39 9 -53 20 -14 11 -32 20 -40 20 -7 0 -22 -9 -32 -20 -10 -11 -30 -20 -45
-20 -15 0 -39 9 -53 20 -14 11 -32 20 -40 20 -7 0 -22 -9 -32 -20z"/>
<path d="M1198 583 c7 -3 16 -2 19 1 4 3 -2 6 -13 5 -11 0 -14 -3 -6 -6z"/>
<path d="M1355 580 c-8 -13 5 -13 25 0 13 8 13 10 -2 10 -9 0 -20 -4 -23 -10z"/>
<path d="M2050 1895 c-8 -10 -10 -29 -6 -54 4 -28 2 -40 -8 -44 -17 -7 -36 11
-36 35 0 10 -7 18 -15 18 -22 0 -19 -46 5 -70 25 -25 62 -26 85 0 14 15 15 25
7 49 -6 16 -8 32 -5 35 12 12 30 5 39 -14 7 -14 13 -17 24 -10 13 8 12 13 -6
37 -24 32 -65 41 -84 18z"/>
<path d="M462 1858 c-7 -7 -12 -15 -12 -20 0 -6 81 -65 127 -92 8 -4 22 9 39
34 22 33 25 43 15 53 -10 9 -16 7 -28 -10 -9 -13 -19 -23 -24 -23 -5 0 -31 16
-57 35 -37 26 -51 32 -60 23z"/>
<path d="M720 564 l-44 -66 24 -19 c46 -36 60 -41 66 -24 4 9 -3 22 -16 33
l-21 17 36 48 c35 46 40 77 13 77 -7 0 -33 -30 -58 -66z"/>
<path d="M1767 585 l-37 -26 46 -69 c30 -45 51 -67 60 -63 17 6 18 25 2 41
-18 18 -4 24 26 12 19 -7 34 -7 49 1 20 11 19 12 -16 26 -32 13 -36 18 -31 39
7 28 -19 64 -45 64 -9 0 -33 -11 -54 -25z m60 -31 c3 -8 0 -21 -6 -27 -10 -9
-16 -8 -26 7 -8 10 -12 23 -9 27 9 15 34 10 41 -7z"/>
<path d="M845 480 c-48 -49 -57 -63 -45 -70 9 -5 19 -5 27 2 18 15 73 -9 73
-32 0 -15 28 -37 35 -28 1 2 7 39 13 83 8 69 7 82 -6 93 -25 20 -34 15 -97
-48z m75 8 c0 -22 -12 -58 -19 -58 -3 0 -12 4 -20 9 -11 7 -10 13 5 35 21 28
34 33 34 14z"/>
<path d="M1650 523 c-19 -8 -36 -16 -38 -17 -1 -2 14 -37 33 -79 l35 -76 43
19 c58 26 55 60 -4 36 -29 -12 -32 23 -4 36 44 20 18 42 -26 24 -29 -12 -32
23 -4 36 26 12 35 39 13 37 -7 0 -29 -7 -48 -16z"/>
<path d="M1003 411 c-18 -69 -18 -81 -6 -85 23 -9 31 0 38 44 4 22 10 42 14
44 4 3 17 -22 29 -54 22 -55 47 -80 62 -63 7 8 40 133 40 153 0 5 -8 10 -19
10 -13 0 -22 -13 -32 -52 l-14 -52 -24 60 c-42 101 -62 100 -88 -5z"/>
<path d="M1515 476 c-22 -7 -39 -16 -37 -19 1 -4 2 -12 2 -18 0 -6 9 -9 20 -6
16 4 22 -4 35 -48 8 -29 15 -58 15 -64 0 -13 10 -14 29 -2 11 7 12 17 3 54 -7
24 -14 51 -18 60 -3 10 2 17 15 22 12 4 18 12 14 21 -6 16 -23 16 -78 0z"/>
<path d="M1372 444 c-36 -25 -27 -66 18 -80 23 -8 35 -18 35 -30 0 -18 -11
-21 -44 -13 -8 2 -17 -4 -19 -13 -5 -25 44 -35 77 -17 29 16 40 61 21 84 -6 8
-24 15 -38 17 -35 4 -37 33 -2 33 15 0 25 6 25 15 0 21 -46 24 -73 4z"/>
<path d="M1216 404 c-3 -26 -6 -64 -6 -85 l0 -39 50 0 c58 0 71 23 19 34 -37
7 -34 30 4 34 35 4 36 32 2 32 -19 0 -25 5 -25 21 0 16 5 20 27 17 20 -2 29 2
31 15 3 14 -4 17 -46 17 l-49 0 -7 -46z"/>
</g>
</svg>
